<?xml version="1.0" encoding="UTF-8"?>
<svg id="Camada_2" data-name="Camada 2" xmlns="http://www.w3.org/2000/svg" viewBox="0 0 787.24 274.12">
  <defs>
    <style>
      .cls-1 {
        fill: #2f4427;
      }

      .cls-2 {
        fill: #393738;
      }

      .cls-3 {
        fill: #2d2d2c;
      }
    </style>
  </defs>
  <g id="Camada_1-2" data-name="Camada 1">
    <g>
      <polygon class="cls-2" points="486.14 134.36 486.1 134.35 486.06 134.32 486.03 134.28 486.01 134.24 486.01 134.2 486.01 134.14 486.03 134.11 486.05 134.07 486.05 134.07 486.12 134.02 487.36 133.57 488.6 133.14 489.85 132.73 491.1 132.36 492.35 132.01 493.61 131.68 494.88 131.38 496.15 131.11 496.15 131.11 496.15 131.11 497.34 130.87 498.53 130.65 499.72 130.47 500.92 130.3 502.12 130.15 503.33 130.03 504.54 129.92 505.76 129.84 506.98 129.78 508.21 129.74 509.43 129.72 510.67 129.73 511.91 129.75 513.15 129.8 514.4 129.87 515.65 129.96 516.63 130.05 517.61 130.15 518.59 130.29 519.57 130.43 520.55 130.6 521.53 130.78 522.5 130.98 523.48 131.2 524.45 131.43 525.42 131.7 526.39 131.97 527.35 132.26 528.31 132.58 529.27 132.9 530.23 133.26 531.18 133.62 532.12 134.01 533.07 134.41 534.01 134.83 534.95 135.27 535.88 135.73 536.8 136.2 537.72 136.69 538.63 137.2 539.54 137.72 540.43 138.26 541.32 138.82 542.21 139.39 543.09 139.98 543.96 140.58 544.82 141.2 545.67 141.84 545.73 141.89 545.78 141.96 545.81 142.04 545.84 142.12 545.84 142.2 545.83 142.28 545.8 142.36 545.77 142.44 542.78 146.98 542.71 147.06 542.62 147.11 542.52 147.14 542.42 147.14 539 146.53 535.71 145.93 532.54 145.31 529.49 144.7 526.56 144.08 523.76 143.45 521.08 142.82 518.52 142.18 517.87 142.03 517.15 141.88 516.33 141.73 515.21 141.54 513.75 141.29 512.73 141.08 509.13 140.28 505.61 139.46 502.17 138.64 498.8 137.8 495.52 136.96 492.31 136.1 489.18 135.24 486.14 134.36 486.14 134.36"/>
      <polygon class="cls-2" points="557.14 149.27 557.28 149.17 557.42 149.04 557.55 148.88 557.66 148.68 557.72 148.57 557.76 148.44 557.78 148.31 557.79 148.18 557.79 132.15 557.8 132.08 557.82 132.01 557.86 131.94 557.9 131.89 557.96 131.84 558.02 131.8 558.09 131.78 558.17 131.77 569.24 131.77 569.3 131.78 569.38 131.8 569.44 131.83 569.49 131.88 569.54 131.94 569.57 132 569.59 132.07 569.6 132.14 569.6 150.95 569.59 151.01 569.58 151.08 569.55 151.12 569.51 151.18 569.46 151.21 569.41 151.24 569.35 151.25 569.29 151.25 569.29 151.25 569.27 151.25 557.19 149.53 557.12 149.5 557.07 149.45 557.06 149.38 557.09 149.31 557.14 149.27 557.14 149.27"/>
      <polygon class="cls-2" points="634.8 131.77 645.79 131.77 645.86 131.78 645.93 131.8 645.99 131.83 646.04 131.88 646.09 131.94 646.12 132 646.14 132.07 646.15 132.14 646.15 152.79 646.14 152.85 646.12 152.92 646.09 152.98 646.05 153.03 645.99 153.08 645.94 153.11 645.88 153.13 645.81 153.14 634.83 153.89 634.75 153.88 634.68 153.86 634.61 153.83 634.55 153.79 634.51 153.73 634.47 153.67 634.45 153.6 634.44 153.52 634.44 132.14 634.45 132.07 634.47 132 634.5 131.94 634.55 131.88 634.6 131.83 634.66 131.8 634.73 131.78 634.8 131.77 634.8 131.77"/>
      <polygon class="cls-2" points="718.27 132.15 718.27 136.41 718.26 136.52 718.22 136.61 718.15 136.7 718.06 136.77 717.74 136.95 717.33 137.14 716.82 137.36 716.22 137.6 714.28 138.33 712.35 139.04 710.43 139.72 708.51 140.39 706.61 141.03 704.72 141.64 702.84 142.24 700.96 142.83 700.53 142.94 700.09 143.02 699.65 143.07 699.2 143.08 669.67 143.08 669.64 143.08 669.57 143.11 669.52 143.16 669.48 143.22 669.46 143.29 669.46 149.66 669.46 149.74 669.44 149.81 669.41 149.88 669.36 149.95 669.3 150 669.24 150.05 669.17 150.08 669.1 150.1 657.92 151.96 657.86 151.96 657.8 151.96 657.74 151.93 657.69 151.9 657.64 151.86 657.6 151.81 657.58 151.74 657.57 151.68 657.57 151.66 657.57 132.05 657.57 132 657.59 131.95 657.61 131.89 657.65 131.86 657.69 131.82 657.73 131.8 657.78 131.78 657.84 131.77 657.84 131.77 717.89 131.77 717.97 131.78 718.04 131.8 718.1 131.84 718.16 131.89 718.2 131.95 718.24 132.01 718.27 132.08 718.27 132.15 718.27 132.15"/>
      <polygon class="cls-2" points="404.23 171.15 404.22 171.11 404.21 171.08 404.21 171.08 404.15 171.04 404.08 171.02 404.01 171.05 403.97 171.1 359.77 269.33 359.73 269.41 359.68 269.47 359.62 269.53 359.56 269.58 359.49 269.62 359.42 269.64 359.34 269.66 359.26 269.66 355.02 269.66 354.9 269.65 354.78 269.6 354.68 269.51 354.62 269.4 309.64 169.58 309.62 169.54 309.59 169.51 309.55 169.49 309.51 169.48 309.47 169.48 309.43 169.5 309.39 169.52 309.37 169.55 309.37 169.55 309.35 169.59 309.34 169.64 309.34 269.39 309.32 269.49 309.27 269.57 309.19 269.62 309.09 269.65 298.54 269.65 298.46 269.64 298.38 269.62 298.31 269.58 298.25 269.53 298.2 269.47 298.16 269.39 298.14 269.32 298.13 269.24 298.13 142.12 298.13 142.06 298.15 141.99 298.18 141.94 298.22 141.89 298.27 141.86 298.33 141.83 298.39 141.81 298.45 141.8 308.45 141.8 308.54 141.81 308.61 141.85 308.68 141.9 308.72 141.98 354.14 241.3 354.62 242.38 355.05 243.39 355.42 244.3 355.73 245.14 356.75 248.01 357.13 249.06 357.16 249.11 357.2 249.14 357.25 249.17 357.3 249.18 357.35 249.18 357.4 249.17 357.45 249.14 357.49 249.11 357.49 249.11 357.52 249.07 357.53 249.03 357.77 248.2 358.04 247.34 358.35 246.44 358.69 245.5 359.07 244.52 359.48 243.52 359.92 242.48 360.4 241.39 391.69 172.09 400.69 152.18 405.27 142.09 405.34 141.97 405.45 141.88 405.51 141.85 405.57 141.82 405.64 141.81 405.71 141.8 415.45 141.8 415.5 141.81 415.56 141.82 415.61 141.85 415.65 141.89 415.69 141.93 415.72 141.98 415.73 142.04 415.74 142.09 415.74 269.32 415.72 269.43 415.67 269.52 415.61 269.57 415.55 269.61 415.48 269.64 415.41 269.65 404.56 269.65 404.49 269.64 404.43 269.62 404.37 269.59 404.32 269.55 404.28 269.5 404.25 269.44 404.23 269.38 404.23 269.32 404.23 171.15 404.23 171.15"/>
      <polygon class="cls-2" points="738.34 258.42 786.99 258.42 787.06 258.43 787.13 258.47 787.13 258.47 787.18 258.51 787.2 258.56 787.23 258.61 787.24 258.67 787.24 269.39 787.22 269.49 787.16 269.57 787.08 269.62 786.99 269.65 726.49 269.65 726.39 269.62 726.31 269.57 726.26 269.49 726.24 269.39 726.24 152.05 726.24 151.99 726.26 151.94 726.29 151.9 726.32 151.86 726.36 151.84 737.72 145.27 737.78 145.25 737.84 145.24 737.91 145.25 737.97 145.27 738.02 145.32 738.05 145.37 738.08 145.43 738.09 145.5 738.09 258.17 738.11 258.26 738.17 258.35 738.24 258.4 738.34 258.42 738.34 258.42"/>
      <polygon class="cls-2" points="439.8 269.65 428.42 269.65 428.34 269.63 428.27 269.58 428.22 269.51 428.21 269.43 428.21 269.43 428.21 145.74 428.23 145.65 428.27 145.59 428.32 145.55 428.38 145.53 428.44 145.53 428.5 145.54 439.88 149.68 439.95 149.73 440 149.8 440.02 149.88 440.02 269.43 440 269.51 439.95 269.58 439.88 269.63 439.8 269.65 439.8 269.65"/>
      <polygon class="cls-2" points="535.51 215.61 507.33 215.61 507.26 215.6 507.18 215.58 507.1 215.52 507.03 215.44 506.99 215.36 506.98 215.26 506.98 204.59 506.98 204.53 506.99 204.48 507.02 204.43 507.06 204.39 507.06 204.39 507.1 204.35 507.15 204.33 507.2 204.31 507.26 204.31 547.3 204.31 547.38 204.31 547.45 204.34 547.51 204.37 547.56 204.41 547.61 204.47 547.64 204.53 547.66 204.6 547.67 204.67 547.67 256.41 547.66 256.57 547.63 256.72 547.59 256.87 547.53 257.02 547.45 257.15 547.36 257.27 547.26 257.39 547.14 257.5 546.16 258.25 545.18 259 544.2 259.72 543.21 260.42 542.22 261.1 541.23 261.76 540.24 262.39 539.25 263.01 538.26 263.6 537.27 264.17 536.27 264.73 535.28 265.26 534.28 265.77 533.28 266.25 532.28 266.72 531.28 267.17 530.27 267.59 529.27 267.99 528.27 268.38 527.26 268.74 526.25 269.08 525.24 269.39 524.24 269.7 523.23 269.97 522.22 270.23 521.21 270.46 520.19 270.68 519.18 270.87 518.17 271.04 517.16 271.18 516.14 271.31 515.12 271.42 513.96 271.51 512.8 271.6 511.65 271.67 510.51 271.72 509.36 271.74 508.24 271.76 507.11 271.76 506.01 271.74 504.9 271.7 503.8 271.64 502.71 271.57 501.62 271.48 500.55 271.38 499.48 271.25 498.43 271.11 497.37 270.94 496.33 270.77 495.29 270.58 494.27 270.37 493.24 270.13 492.23 269.89 491.23 269.62 490.24 269.35 489.24 269.05 488.27 268.74 487.3 268.4 486.34 268.05 485.38 267.69 484.43 267.3 483.49 266.9 482.57 266.48 481.65 266.05 480.89 265.67 480.15 265.29 479.41 264.89 478.68 264.49 477.96 264.07 477.24 263.65 476.53 263.21 475.84 262.77 475.14 262.32 474.46 261.85 473.79 261.37 473.12 260.89 472.47 260.39 471.82 259.89 471.18 259.37 470.54 258.85 469.74 258.16 468.96 257.45 468.19 256.73 467.43 255.99 466.69 255.23 465.96 254.46 465.24 253.68 464.55 252.87 463.86 252.05 463.18 251.22 462.53 250.37 461.89 249.51 461.27 248.62 460.66 247.73 460.06 246.82 459.48 245.89 458.91 244.95 458.36 243.99 457.83 243.02 457.31 242.05 456.81 241.05 456.32 240.03 455.85 239.01 455.4 237.97 454.95 236.92 454.53 235.85 454.13 234.77 453.73 233.68 453.36 232.57 453 231.46 452.66 230.33 452.34 229.2 452.02 228.04 451.74 226.87 451.46 225.69 451.21 224.5 450.96 223.3 450.74 222.08 450.54 220.87 450.35 219.64 450.18 218.39 450.03 217.16 449.89 215.9 449.77 214.64 449.68 213.37 449.59 212.1 449.53 210.82 449.49 209.54 449.46 208.24 449.45 206.95 449.46 205.64 449.48 204.35 449.53 203.04 449.59 201.73 449.67 200.42 449.77 199.12 449.89 197.81 450.02 196.5 450.17 195.19 450.34 193.89 450.53 192.58 450.73 191.28 450.96 189.98 451.2 188.69 451.41 187.63 451.64 186.56 451.89 185.51 452.15 184.46 452.42 183.41 452.71 182.36 453.02 181.33 453.35 180.31 453.69 179.29 454.04 178.27 454.41 177.26 454.8 176.27 455.19 175.29 455.61 174.31 456.03 173.33 456.48 172.38 456.93 171.43 457.4 170.49 457.89 169.57 458.38 168.65 458.89 167.74 459.42 166.85 459.95 165.97 460.5 165.1 461.07 164.25 461.64 163.4 462.23 162.57 462.83 161.75 463.44 160.95 464.07 160.15 464.71 159.38 465.36 158.62 465.44 158.53 465.54 158.45 465.65 158.39 465.77 158.35 465.89 158.33 466.01 158.32 466.13 158.33 466.25 158.35 479.07 162.13 479.14 162.16 479.21 162.21 479.26 162.27 479.3 162.34 479.32 162.42 479.32 162.5 479.3 162.58 479.27 162.65 479.27 162.65 479.2 162.73 478.38 163.47 477.56 164.24 476.77 165.03 475.99 165.85 475.23 166.69 474.48 167.56 473.76 168.44 473.05 169.35 472.36 170.29 471.68 171.24 471.03 172.21 470.39 173.21 469.78 174.22 469.18 175.26 468.61 176.31 468.06 177.38 467.52 178.48 467.01 179.58 466.52 180.71 466.05 181.84 465.6 183 465.18 184.15 464.78 185.33 464.41 186.52 464.05 187.72 463.73 188.92 463.42 190.15 463.15 191.36 462.9 192.6 462.67 193.83 462.47 195.07 462.3 196.31 462.15 197.48 462.02 198.67 461.91 199.85 461.82 201.04 461.74 202.22 461.69 203.42 461.65 204.6 461.63 205.79 461.63 206.98 461.64 208.17 461.68 209.35 461.73 210.53 461.8 211.7 461.88 212.87 461.98 214.04 462.11 215.2 462.25 216.35 462.4 217.49 462.58 218.63 462.77 219.76 462.98 220.88 463.2 221.99 463.44 223.1 463.7 224.19 463.98 225.27 464.27 226.35 464.58 227.41 464.91 228.46 465.25 229.49 465.61 230.52 465.99 231.53 466.38 232.54 466.73 233.37 467.08 234.19 467.45 235 467.83 235.8 468.23 236.6 468.63 237.37 469.05 238.15 469.48 238.91 469.93 239.66 470.39 240.4 470.86 241.12 471.34 241.84 471.83 242.55 472.34 243.24 472.85 243.92 473.38 244.59 473.92 245.25 474.48 245.89 475.04 246.53 475.61 247.15 476.2 247.76 476.79 248.36 477.4 248.94 478.02 249.51 478.65 250.06 479.28 250.61 479.93 251.14 480.59 251.65 481.26 252.15 481.93 252.64 482.62 253.12 483.32 253.57 483.89 253.94 484.47 254.29 485.05 254.64 485.65 254.97 486.24 255.3 486.84 255.61 487.45 255.92 488.07 256.22 488.68 256.5 489.3 256.78 489.93 257.05 490.57 257.3 491.2 257.55 491.85 257.79 492.49 258.01 493.15 258.23 493.8 258.44 494.46 258.63 495.13 258.82 495.8 259 496.48 259.16 497.16 259.32 497.84 259.46 498.53 259.6 499.22 259.73 499.91 259.84 500.61 259.95 501.31 260.04 502.02 260.12 502.73 260.2 503.43 260.26 504.16 260.32 505.27 260.38 506.38 260.43 507.48 260.44 508.58 260.45 509.67 260.43 510.76 260.39 511.84 260.33 512.92 260.26 513.98 260.16 515.03 260.04 516.09 259.9 517.12 259.74 518.15 259.56 519.17 259.36 520.18 259.14 521.17 258.89 522.15 258.64 523.12 258.36 524.09 258.06 525.03 257.74 525.97 257.4 526.89 257.05 527.79 256.67 528.69 256.27 529.57 255.86 530.43 255.42 531.29 254.97 532.13 254.5 532.96 254.01 533.77 253.5 534.56 252.97 535.35 252.43 535.46 252.34 535.55 252.24 535.64 252.12 535.72 252 535.77 251.87 535.81 251.73 535.84 251.59 535.84 251.45 535.84 215.95 535.84 215.9 535.83 215.85 535.8 215.79 535.77 215.74 535.73 215.7 535.68 215.66 535.62 215.63 535.57 215.62 535.51 215.61 535.51 215.61"/>
      <polygon class="cls-2" points="669.72 258.42 720.74 258.42 720.79 258.43 720.84 258.44 720.89 258.47 720.93 258.5 720.96 258.54 720.99 258.59 721 258.64 721.01 258.69 721.01 269.37 720.99 269.44 720.97 269.51 720.97 269.51 720.93 269.56 720.87 269.61 720.8 269.64 720.74 269.65 657.84 269.65 657.79 269.64 657.74 269.62 657.69 269.6 657.65 269.56 657.65 269.56 657.61 269.53 657.59 269.48 657.57 269.43 657.57 269.37 657.57 175.63 657.58 175.56 657.61 175.48 657.65 175.45 657.69 175.41 657.74 175.39 657.79 175.36 669.13 173.09 669.19 173.08 669.25 173.1 669.3 173.11 669.36 173.14 669.4 173.19 669.43 173.24 669.45 173.3 669.45 173.36 669.45 199.32 669.46 199.38 669.48 199.42 669.5 199.47 669.54 199.51 669.57 199.55 669.62 199.57 669.67 199.58 669.73 199.59 714.45 199.59 714.52 199.6 714.59 199.62 714.59 199.62 714.64 199.67 714.68 199.73 714.71 199.79 714.72 199.86 714.72 210.52 714.72 210.58 714.7 210.62 714.68 210.67 714.64 210.71 714.6 210.74 714.56 210.77 714.51 210.79 714.45 210.79 669.72 210.79 669.66 210.8 669.61 210.81 669.57 210.83 669.53 210.87 669.49 210.91 669.46 210.95 669.45 211.01 669.45 211.06 669.45 258.15 669.45 258.2 669.46 258.25 669.49 258.3 669.53 258.34 669.57 258.37 669.61 258.4 669.66 258.41 669.72 258.42 669.72 258.42"/>
      <polygon class="cls-2" points="646.03 177.26 646.08 177.27 646.11 177.29 646.15 177.33 646.16 177.37 646.16 177.38 646.15 202.92 646.15 218.15 646.14 220.11 646.1 222.02 646.02 223.91 645.92 225.76 645.78 227.56 645.61 229.34 645.41 231.08 645.18 232.79 644.91 234.46 644.61 236.1 644.29 237.69 643.93 239.26 643.55 240.79 643.12 242.27 642.91 243.01 642.68 243.73 642.44 244.45 642.2 245.15 641.95 245.85 641.68 246.54 641.42 247.21 641.14 247.88 640.86 248.54 640.57 249.19 640.27 249.83 639.96 250.46 639.65 251.09 639.33 251.7 638.99 252.31 638.66 252.9 638.31 253.49 637.96 254.07 637.6 254.63 637.23 255.19 636.86 255.74 636.47 256.28 636.08 256.81 635.68 257.33 635.27 257.85 634.86 258.35 634.44 258.84 634.01 259.33 633.57 259.8 633.12 260.27 632.67 260.72 632.21 261.18 631.74 261.61 631.27 262.04 630.78 262.46 630.29 262.87 629.46 263.53 628.61 264.16 627.74 264.76 626.86 265.35 625.95 265.9 625.02 266.43 624.06 266.94 623.09 267.41 622.1 267.87 621.09 268.3 620.05 268.7 618.99 269.08 617.92 269.43 616.82 269.76 615.7 270.06 614.57 270.33 613.67 270.53 612.77 270.71 611.84 270.88 610.91 271.04 609.97 271.18 609.02 271.31 608.06 271.42 607.1 271.51 606.13 271.6 605.16 271.67 604.18 271.73 603.21 271.77 602.23 271.8 601.24 271.8 600.27 271.8 599.3 271.79 598.33 271.75 597.36 271.71 596.41 271.64 595.46 271.57 594.52 271.48 593.58 271.37 592.66 271.25 591.74 271.12 590.84 270.97 589.95 270.81 589.07 270.64 588.2 270.45 587.35 270.24 586.52 270.02 585.7 269.8 584.89 269.55 584.1 269.3 583.33 269.03 582.57 268.75 581.82 268.45 581.08 268.15 580.35 267.82 579.64 267.47 578.93 267.12 578.24 266.76 577.55 266.37 576.88 265.97 576.22 265.56 575.57 265.13 574.93 264.69 574.3 264.23 573.69 263.76 573.21 263.38 572.74 262.99 572.28 262.58 571.82 262.18 571.36 261.76 570.92 261.33 570.48 260.89 570.05 260.44 569.63 259.99 569.22 259.52 568.8 259.06 568.41 258.58 568.01 258.08 567.62 257.58 567.24 257.07 566.88 256.56 566.51 256.03 566.15 255.5 565.8 254.95 565.46 254.4 565.12 253.84 564.8 253.27 564.48 252.69 564.16 252.1 563.86 251.5 563.55 250.9 563.27 250.29 562.98 249.67 562.71 249.03 562.44 248.39 562.18 247.75 561.92 247.09 561.43 245.75 560.98 244.38 560.55 242.97 560.16 241.53 559.79 240.06 559.46 238.56 559.15 237.02 558.88 235.46 558.64 233.86 558.43 232.24 558.24 230.58 558.1 228.89 557.98 227.18 557.9 225.45 557.84 223.68 557.82 221.9 557.8 214.66 557.79 204.97 557.79 178.26 557.8 178.19 557.82 178.13 557.85 178.07 557.89 178.02 557.94 177.98 558 177.95 558.06 177.93 558.12 177.93 558.14 177.93 569.22 178.93 569.29 178.95 569.36 178.98 569.42 179.02 569.48 179.07 569.52 179.13 569.55 179.19 569.58 179.26 569.58 179.33 569.59 183.82 569.61 191.86 569.59 218.66 569.61 220.26 569.65 221.84 569.71 223.38 569.8 224.9 569.91 226.38 570.05 227.84 570.21 229.26 570.4 230.65 570.61 232.01 570.86 233.35 571.12 234.64 571.42 235.91 571.73 237.15 572.07 238.36 572.44 239.53 572.83 240.68 573.25 241.79 573.69 242.87 574.16 243.92 574.66 244.93 575.17 245.92 575.72 246.87 576.29 247.79 576.88 248.68 577.49 249.53 578.14 250.36 578.81 251.14 579.5 251.9 579.86 252.27 580.22 252.63 580.59 252.98 580.96 253.32 581.34 253.66 581.73 253.99 582.12 254.31 582.52 254.62 583.27 255.17 584.04 255.68 584.82 256.18 585.64 256.64 586.47 257.08 587.31 257.5 588.18 257.88 589.08 258.24 589.99 258.57 590.92 258.87 591.88 259.15 592.84 259.39 593.84 259.61 594.86 259.81 595.89 259.97 596.95 260.11 597.93 260.21 598.9 260.31 599.86 260.37 600.81 260.42 601.76 260.44 602.7 260.45 603.62 260.44 604.55 260.42 605.46 260.37 606.36 260.3 607.26 260.21 608.15 260.11 609.03 259.98 609.9 259.84 610.76 259.67 611.61 259.49 612.32 259.32 613.01 259.14 613.68 258.93 614.36 258.73 615.02 258.5 615.67 258.25 616.3 258 616.93 257.73 617.55 257.44 618.16 257.14 618.75 256.82 619.34 256.5 619.92 256.15 620.48 255.79 621.03 255.41 621.57 255.02 622.34 254.44 623.08 253.82 623.8 253.18 624.49 252.5 625.16 251.8 625.81 251.06 626.44 250.29 627.05 249.5 627.62 248.67 628.18 247.81 628.72 246.93 629.23 246.01 629.72 245.07 630.18 244.1 630.62 243.1 631.04 242.07 631.43 241.01 631.8 239.93 632.15 238.81 632.47 237.67 632.77 236.49 633.04 235.3 633.29 234.08 633.51 232.84 633.71 231.56 633.88 230.26 634.03 228.94 634.15 227.6 634.24 226.24 634.32 224.85 634.36 223.45 634.39 222.02 634.43 211.86 634.45 201.26 634.44 190.24 634.41 178.78 634.42 178.72 634.43 178.65 634.46 178.6 634.49 178.56 634.54 178.51 634.6 178.48 634.65 178.46 634.71 178.45 646.03 177.26 646.03 177.26"/>
      <polygon class="cls-1" points="231.09 .38 228.97 12.58 228.96 12.65 228.91 12.73 228.84 12.8 228.75 12.84 228.66 12.85 211.44 12.85 211.38 12.84 211.32 12.83 211.27 12.8 211.22 12.76 211.17 12.7 211.14 12.63 211.12 12.55 211.13 12.48 213.24 .27 213.27 .18 213.31 .11 213.31 .11 213.36 .07 213.42 .03 213.49 .01 213.56 0 230.77 0 230.84 .01 230.91 .03 230.97 .07 231.02 .11 231.05 .17 231.08 .23 231.09 .3 231.09 .38 231.09 .38"/>
      <polygon class="cls-1" points="67.22 25.36 49.98 63.69 49.93 63.78 49.87 63.86 49.79 63.93 49.71 64 49.62 64.05 49.52 64.09 49.42 64.11 49.31 64.11 35.88 64.11 35.81 64.11 35.75 64.09 35.7 64.07 35.65 64.03 35.6 63.98 35.57 63.92 35.55 63.87 35.53 63.81 31.51 25.09 31.49 25.03 31.43 24.99 31.38 24.99 31.32 25.02 31.32 25.02 31.3 25.05 31.29 25.08 31.1 26.51 30.9 28.1 30.7 29.9 30.42 32.41 30.09 35.48 29.82 37.74 29.56 39.79 29.3 41.67 28.9 44.27 28.48 46.92 28.03 49.61 27.56 52.35 27.07 55.13 26.55 57.95 26 60.81 25.43 63.71 25.41 63.8 25.38 63.87 25.32 63.95 25.26 64.01 25.19 64.05 25.11 64.09 25.02 64.11 24.94 64.12 7.94 64.12 7.85 64.11 7.76 64.09 7.69 64.04 7.62 63.98 7.57 63.91 7.53 63.83 7.51 63.75 7.51 63.66 7.51 63.66 7.51 63.62 18.22 1.84 18.24 1.78 18.26 1.73 18.29 1.68 18.34 1.64 18.38 1.6 18.44 1.58 18.49 1.56 18.55 1.55 42.15 1.55 42.25 1.57 42.34 1.59 42.42 1.63 42.49 1.68 42.56 1.76 42.61 1.84 42.64 1.92 42.66 2.02 46.6 39.91 46.61 39.95 46.64 40 46.67 40.04 46.72 40.07 46.77 40.08 46.82 40.08 46.87 40.07 46.92 40.05 46.96 40.01 46.98 39.97 64.02 2.11 64.08 1.99 64.16 1.89 64.26 1.79 64.37 1.71 64.49 1.64 64.62 1.59 64.75 1.57 64.89 1.55 88.28 1.55 88.31 1.55 88.38 1.57 88.44 1.59 88.49 1.64 88.55 1.68 88.58 1.74 88.61 1.81 88.62 1.88 88.61 1.95 77.9 63.73 77.88 63.81 77.85 63.89 77.8 63.95 77.75 64.01 77.68 64.05 77.61 64.09 77.53 64.11 77.45 64.11 59.97 64.11 59.95 64.11 59.89 64.11 59.84 64.08 59.79 64.05 59.75 64.01 59.72 63.95 59.7 63.9 59.69 63.84 59.7 63.78 61.95 51.23 63.02 45.34 64.06 39.67 64.34 38.26 64.65 36.78 65 35.25 65.38 33.66 65.81 31.99 66.28 30.23 66.81 28.34 67.42 26.18 67.48 25.98 67.51 25.78 67.52 25.59 67.51 25.41 67.5 25.36 67.48 25.33 67.46 25.3 67.42 25.28 67.39 25.27 67.35 25.27 67.31 25.28 67.27 25.3 67.24 25.33 67.22 25.36 67.22 25.36"/>
      <path class="cls-1" d="M282.41,44.57h-.07s-.07.03-.07.03l-.07.03-.06.04-.05.05-.04.06-.03.07-.02.07-3.24,18.7-.03.1-.05.1-.06.09-.08.08-.09.06-.1.05-.11.03h-.1s-19.18,0-19.18,0h-.11s-.07-.04-.07-.04l-.07-.04-.05-.05-.04-.07-.02-.07v-.08s0-.08,0-.08l10.7-61.74.02-.08.03-.06.05-.07.05-.05.07-.04.07-.04.08-.02h.07s12.75-.03,12.75-.03l12.17.02h3.24s.96,0,.96,0h.96l.94.02.92.03.9.06.89.07.88.09.85.1.84.12.82.14.79.15.78.17.76.18.73.2.71.22.69.23.67.25.64.26.63.29.6.29.59.32.56.33.54.34.52.36.5.38.48.38.45.41.43.42.41.44.39.45.36.46.35.48.28.43.26.44.25.45.23.46.21.48.2.48.18.49.17.51.14.52.13.53.11.54.1.55.08.56.06.57.05.59.03.6.02.99-.02.99-.03.62-.04.62-.05.62-.07.62-.09.62-.1.62-.12.61-.12.62-.14.62-.15.62-.17.61-.18.61-.19.62-.21.61-.22.61-.24.61-.26.62-.27.61-.28.6-.3.58-.3.57-.32.56-.34.54-.34.53-.36.52-.37.51-.38.49-.39.48-.41.46-.42.46-.43.43-.45.43h0l-.39.36-.4.35-.42.34-.42.33-.43.32-.44.31-.46.3-.46.29-.47.28-.48.26-.49.26-.49.25-.51.24-.52.23-.52.22-.54.21-.9.32-.91.3-.9.27-.9.24-.92.22-.94.2-.95.17-.97.15-1.01.13-1.04.11-1.03.09-1.08.07-1.13.05-1.21.04-1.26.02h-1.39s-3.78-.02-3.78-.02l-3.97-.03M284.82,30l1.8.03h2.08l2.37-.03,2.64-.05.51-.03.51-.06.5-.08.5-.11.43-.12.42-.14.42-.17.4-.18.4-.21.39-.22.38-.24.36-.26.36-.28.34-.29.33-.31.31-.33.3-.34.27-.35.26-.36.23-.37.22-.38.19-.39.17-.39.15-.4.13-.4.1-.4.07-.4.05-.4.02-.39v-.39s-.04-.38-.04-.38l-.05-.37-.08-.36-.11-.35-.13-.33-.15-.33-.2-.35-.24-.34-.26-.32-.29-.29-.33-.28-.35-.26-.38-.24-.41-.21-.43-.2-.45-.18-.49-.15-.51-.13-.53-.11-.55-.09-.59-.07-.6-.04-1.64-.07-1.87-.04h-2.1s-2.32,0-2.32,0h-.07s-.06.03-.06.03l-.06.03-.06.04-.04.04-.04.06-.03.06v.07s-2.33,13.35-2.33,13.35v.08l.04.07.06.05.08.03h.02Z"/>
      <path class="cls-1" d="M118.66,59.62v-.05s-.02-.04-.02-.04l-.03-.04-.03-.03-.04-.02-.05-.02h-.09s-.06.04-.06.04l-.45.35-.46.34-.47.34-.47.32-.47.31-.48.3-.47.29-.49.28-.49.27-.49.26-.49.25-.5.24-.5.23-.5.22-.51.2-.51.2h0l-.64.23-.65.21-.65.2-.65.18-.67.17-.67.14-.68.14-.68.11-.69.1-.69.09-.7.06-.71.05-.71.04-.71.02h-.72s-.73,0-.73,0l-.39-.02-.4-.03-.4-.04-.41-.05-.41-.06-.42-.07-.42-.08-.42-.09-.42-.11-.42-.11-.41-.12-.41-.13-.4-.14-.4-.15-.39-.15-.38-.17-.37-.17-.36-.18-.35-.18-.35-.19-.33-.2-.32-.21-.31-.21-.3-.21-.29-.21-.27-.23-.26-.23-.25-.23-.23-.24-.22-.24-.2-.25-.19-.25-.1-.13-.17-.26-.17-.26-.16-.27-.14-.28-.14-.29-.12-.29-.11-.3-.11-.31-.1-.32-.09-.32-.08-.33-.06-.33-.06-.34-.04-.35-.03-.35-.03-.36-.02-.37v-.38s.02-.76.02-.76l.07-.8.1-.82.14-.84.19-.86.22-.89.26-.91.18-.56.2-.53.22-.54.25-.51.33-.61.36-.6.39-.58.43-.56.45-.54.48-.53.52-.51.54-.49.57-.46.61-.45.63-.42.66-.41.68-.39.71-.36.73-.33.76-.32.55-.2.6-.2.65-.2.69-.18.73-.18.78-.17.83-.16.88-.16,3.57-.61,3.51-.58,3.45-.55,3.38-.52.45-.08.46-.1.47-.13.47-.16.44-.17.43-.18.4-.2.38-.21.33-.22.31-.23.27-.24.23-.24.2-.25.17-.25.14-.27.09-.26.08-.32.05-.3.03-.3v-.27s-.02-.27-.02-.27l-.04-.26-.08-.24-.09-.23-.08-.16-.09-.15-.1-.14-.12-.14-.13-.13-.14-.12-.15-.11-.17-.11-.17-.11-.19-.09-.2-.1-.2-.08-.45-.15-.49-.12-.55-.1-.59-.07-.62-.04h-.64s-.66.02-.66.02l-.65.06-.62.09-.54.11-.43.12-.4.14-.38.16-.37.18-.35.2-.32.22-.31.24-.29.26h0l-.21.22-.21.23-.19.25-.17.26-.17.28-.15.28-.14.3-.13.31-.05.1-.06.1-.08.08-.09.07-.09.05-.1.04-.11.02h-.11s-16.4.01-16.4.01h-.03l-.07-.02-.05-.02-.05-.04-.04-.04-.04-.05-.02-.06v-.07s0-.07,0-.07l.18-.81.22-.8.25-.77.29-.75.16-.37.16-.36.18-.35.18-.35.19-.34.2-.34.21-.33.21-.33.31-.44.32-.43.34-.41.35-.4.37-.39.39-.38.4-.38.42-.36.43-.35.45-.34.46-.33.48-.32.49-.3.51-.3.52-.28.54-.28.55-.26.57-.26.58-.24.6-.23.61-.22.63-.21.64-.2.66-.18.67-.17.68-.16.7-.15.71-.14.73-.12.74-.11.76-.11.77-.09.98-.1.98-.09.97-.08.98-.07.97-.05.97-.03.96-.03h.97s.96,0,.96,0l.96.02.95.03.96.04.95.05.96.07.95.08.94.1.89.11.87.15.84.17.81.21.78.24.74.27.36.14.36.15.34.16.33.17.32.17.31.18.3.19.3.2.29.2.27.21.27.22.26.22.24.23.24.24.22.24.22.25.21.25.2.27.18.26.18.28.28.47.25.49.22.51.19.53.16.54.13.55.1.58.08.6.05.66.03.68v.71s0,.72,0,.72l-.04.74-.06.76-.08.79-.11.8-.39,2.39-.87,5.14-3.19,18.53-.02.17v.16s-.01.18-.01.18v.17s.02.18.02.18l.03.18.04.19.05.18.14.38.18.37.22.4.27.43.4.57.34.48.05.1.03.1v.11l-.02.11-.05.1-.07.08-.09.07-.1.05h-.07s-.07.02-.07.02h-17.59s-.1-.04-.1-.04l-.1-.05-.08-.07-.07-.08-.05-.09-.03-.1v-.1s-.01-3.96-.01-3.96M120.04,44.22l-.55.21-.73.24-.91.27-1.1.29-1.28.32-1.46.35-1.64.38-1.82.4-.36.09-.35.09-.34.11-.33.11-.32.12-.3.14-.29.14-.27.16-.26.16-.25.18-.23.18-.22.2-.2.2-.19.22-.18.22-.17.23-.14.23-.13.23-.11.24-.11.26-.12.34-.08.34-.06.33-.03.32v.31l.03.3.05.29.09.28.07.16.08.16.09.16.1.15.11.15.12.14.13.14.14.14.15.13.16.12.35.23.38.21.43.18.46.16.49.13.5.1.52.07.53.03h.52l.5-.04.49-.07.43-.09.42-.11.36-.12.35-.13.34-.14.34-.17.33-.18.33-.2.32-.21.31-.23.3-.24.3-.26.29-.28.29-.29.27-.31.26-.31.26-.34.24-.34.24-.37.23-.38.22-.39.21-.4.2-.41.19-.42.18-.43.16-.44.15-.45.13-.45.12-.46.11-.46.1-.47.09-.46.06-.46.05-.45v-.03l-.02-.05-.04-.04-.05-.02h-.06Z"/>
      <polygon class="cls-1" points="342.62 27.02 344.16 24.8 344.63 24.13 344.9 23.77 345.25 23.34 345.61 22.92 345.98 22.53 346.35 22.14 346.73 21.77 347.11 21.42 347.5 21.08 347.9 20.75 348.3 20.44 348.71 20.15 349.13 19.86 349.56 19.6 349.99 19.35 350.42 19.11 350.87 18.89 351.32 18.68 351.32 18.68 351.8 18.48 352.3 18.3 352.8 18.12 353.31 17.97 353.83 17.84 354.35 17.72 354.88 17.61 355.42 17.53 355.97 17.47 356.52 17.42 357.09 17.38 357.66 17.36 358.23 17.36 358.82 17.38 359.41 17.42 360.01 17.47 360.06 17.48 360.1 17.49 360.15 17.52 360.18 17.56 360.21 17.6 360.23 17.65 360.24 17.7 360.23 17.74 360.23 17.76 357.17 35.4 357.16 35.45 357.14 35.49 357.1 35.54 357.07 35.57 357.02 35.59 356.97 35.61 356.92 35.61 356.87 35.61 356.87 35.61 356.86 35.61 356.07 35.44 355.29 35.31 354.51 35.22 353.74 35.17 352.98 35.16 352.22 35.18 351.47 35.25 350.73 35.36 350.73 35.36 350.1 35.48 349.48 35.62 349.01 35.75 348.56 35.9 348.12 36.07 347.7 36.24 347.28 36.45 346.88 36.66 346.49 36.9 346.12 37.15 345.81 37.37 345.51 37.6 345.22 37.85 344.94 38.11 344.67 38.38 344.41 38.66 344.15 38.96 343.9 39.26 343.66 39.58 343.43 39.92 343.2 40.26 342.98 40.62 342.77 40.99 342.57 41.38 342.37 41.78 342.18 42.19 342 42.6 341.83 43.03 341.67 43.47 341.51 43.93 341.2 44.89 340.92 45.93 340.65 47.02 340.4 48.2 340.14 49.53 339.82 51.33 339.78 51.55 339.15 55.18 338.6 58.42 338.14 61.27 337.75 63.71 337.73 63.79 337.69 63.87 337.64 63.93 337.59 63.99 337.52 64.05 337.44 64.08 337.36 64.11 337.28 64.11 320.12 64.11 320.1 64.11 320.04 64.1 319.98 64.08 319.93 64.05 319.89 64 319.86 63.95 319.84 63.89 319.83 63.83 319.83 63.77 327.61 18.9 327.63 18.83 327.66 18.76 327.7 18.7 327.76 18.64 327.82 18.6 327.89 18.57 327.96 18.55 328.03 18.54 343.37 18.54 343.45 18.55 343.52 18.57 343.59 18.61 343.65 18.67 343.7 18.73 343.73 18.8 343.75 18.88 343.75 18.96 343.75 18.98 342.37 26.91 342.38 26.98 342.42 27.05 342.49 27.08 342.56 27.07 342.56 27.07 342.6 27.05 342.62 27.02 342.62 27.02"/>
      <path class="cls-1" d="M406.34,50.41h.1s.09.04.09.04l.08.05.07.07.05.08.03.09v.1s0,.1,0,.1l-.03.09-.37.73-.39.71-.41.69-.43.68-.45.66-.48.65-.49.62-.52.61-.55.61-.57.59-.59.57-.62.55-.63.52-.65.51-.68.49-.69.46-.71.45-.74.43-.75.4-.77.39-.79.36-.82.35-.82.33-.84.3-.86.28-.88.26-.89.24-.91.21-.93.19-.94.17-.95.14-.96.12-.98.1-.99.08-.99.05-1,.03h-1.01s-1.02,0-1.02,0l-1.01-.04-1.03-.07-1.04-.09-1.03-.14-1.01-.17-.98-.2-.96-.24-.47-.13-.47-.14-.45-.15-.46-.15-.44-.17-.44-.18-.43-.18-.43-.19-.42-.2-.41-.21-.4-.22-.39-.22-.39-.23-.38-.24-.37-.24-.37-.26-.36-.26-.35-.28-.34-.28-.33-.29-.32-.29-.32-.3-.53-.55-.51-.56-.47-.57-.44-.58-.42-.6-.39-.61-.35-.62-.33-.63-.29-.63-.26-.64-.24-.65-.21-.67-.18-.68-.16-.7-.13-.71-.1-.73-.08-.74-.05-.77-.03-.78v-.8s.02-.82.02-.82l.05-.84.08-.86.1-.89.08-.57.08-.57.1-.56.11-.55.11-.55.13-.54.13-.54.14-.54.15-.53.17-.53.17-.52.18-.52.2-.51.2-.51.22-.5.22-.5h0l.34-.7.36-.7.38-.69.4-.68.42-.67.45-.66.46-.65.49-.65.51-.63.52-.62.55-.61.56-.6.59-.6.6-.59.63-.57.64-.57.63-.53.64-.5.64-.48.65-.47.65-.44.66-.42.67-.41.67-.38.68-.35.68-.34.69-.32.7-.29.7-.28.71-.26.71-.23.72-.21h0l.64-.17.65-.15.65-.14.66-.12.83-.14.83-.12.82-.1.82-.09.8-.07.79-.05.79-.03h.78s.77,0,.77,0l.76.02.75.04.74.06.72.07.71.1.7.11.7.13.67.15.67.16.65.18.64.2.62.22.61.23.6.25.58.27.58.29.56.3.55.32.53.34.51.35.51.37.48.39.48.4.44.4.43.43.42.43.4.45.39.47.38.48.36.49.35.51.33.53.32.55.31.55.29.57.27.58.27.6.24.61.23.63.27.79.24.83.21.84.19.88.16.89.14.92.1.92.08.94.05.95.02.95v.96s-.05.96-.05.96l-.07.95-.1.94-.12.93-.15.92-.02.07-.03.06-.04.05-.05.05-.05.04-.06.02-.07.02h-.07s-33.47,0-33.47,0h-.1s-.1.04-.1.04l-.09.04-.08.07-.07.08-.05.09-.04.09-.02.1v.45s-.02.45-.02.45l.02.43.03.42.04.41.06.4.08.39.09.38.1.36.12.35.14.34.14.32.17.32.18.3.19.29.21.28h0l.2.23.2.22.22.22.22.2.24.2.24.18.26.18.27.17.33.19.34.17.35.15.35.14.36.12.36.11.37.08.36.07.29.04.29.03.29.02h.29s.29,0,.29,0h.29s.29-.04.29-.04l.29-.04.29-.05.29-.05.29-.06.28-.08.29-.08.28-.1.27-.11.27-.12.27-.12.26-.14.26-.15.26-.15.25-.17.24-.17.24-.18.23-.2.23-.19.23-.21.21-.21.21-.22.4-.46.19-.24.18-.25.07-.09.07-.07.08-.07.09-.05.09-.04.1-.03.1-.02h.11s15.97,0,15.97,0M393.13,35.72l-.02-.51-.04-.51-.07-.49-.09-.48-.11-.47-.13-.46-.16-.43-.18-.42-.21-.4-.23-.38-.24-.35-.27-.34-.28-.31-.31-.29-.32-.27-.35-.24-.36-.21-.38-.18-.39-.17-.4-.13-.41-.11-.44-.08-.44-.05-.46-.02h-.55s-.54.02-.54.02l-.54.04-.52.06-.51.09-.49.1-.49.13-.47.15-.46.17-.44.2-.42.21-.41.24-.39.25-.38.28-.35.29-.34.32-.23.24-.23.25-.21.26-.2.27-.2.28-.18.29-.17.29-.16.31-.15.32-.14.33-.12.33-.12.34-.11.35-.1.35-.08.36-.08.38v.02s.01.09.01.09l.04.08.08.05.09.02h15.49s.08-.03.08-.03l.07-.04.07-.05.05-.07.04-.07.02-.08v-.08h.01Z"/>
      <path class="cls-1" d="M201.88,18.72l-.03-.05-.03-.05-.05-.04-.05-.03h-.09s-18.56-.01-18.56-.01h-.12s-.12.03-.12.03l-.11.04-.11.05-.1.06-.09.08-.09.08-.07.1-7.33,10.55-.05.04-.04.03h-.04s-.05.01-.05.01h-.04s-.04-.02-.04-.02l-.04-.03-.03-.04-.02-.04-3.44-10.62-.02-.07-.04-.06-.04-.05-.05-.05-.06-.03-.07-.03h-.07s-.07-.02-.07-.02h-19.07s-.07.03-.07.03l-.06.04-.05.05-.04.07-.03.07v.08s0,.07,0,.07l.03.08,10.7,21.19.03.09v.1s-.02.1-.02.1l-.05.08-19.72,23.07-.05.09-.02.06v.07l.02.07.03.05.04.05.05.04.07.02h.07s18.88,0,18.88,0h.14s.12-.07.12-.07l.11-.08.09-.1,8.05-12.23.07-.08.07-.04.08-.02h.07s.07.01.07.01l.07.03.06.05.05.05.03.07,3.91,12.05.05.11.07.1.09.09.07.05c.56-.08,1.12-.18,1.68-.23.88-.08,1.76-.04,2.64-.02,1.78.04,3.55.12,5.33.16,1.08.03,2.18.05,3.28.06h.44c1.98.02,3.96-.03,5.89-.25v-.05s-.03-.32-.03-.32l-.07-.34-.1-.35-.13-.36-.17-.38-5.11-10.71-5.07-10.66-.04-.1-.02-.11v-.11s0-.11,0-.11l.02-.11.04-.1.05-.09.07-.09,18.4-20.93.03-.05.02-.05v-.06s0-.06,0-.06Z"/>
      <polygon class="cls-1" points="451.2 18.55 467.77 18.55 467.82 18.55 467.86 18.57 467.89 18.59 467.91 18.62 467.93 18.66 467.94 18.71 467.94 18.74 467.92 18.79 445.27 64.03 445.23 64.08 445.18 64.11 445.13 64.11 425.45 64.11 425.41 64.11 425.37 64.1 425.31 64.05 425.28 63.98 417.74 18.73 417.74 18.67 417.78 18.61 417.83 18.56 417.9 18.55 435.16 18.55 435.22 18.55 435.27 18.59 435.31 18.64 435.32 18.7 438.21 46.45 438.23 46.51 438.28 46.56 438.34 46.59 438.41 46.59 438.48 46.55 438.52 46.49 451.05 18.64 451.08 18.6 451.11 18.57 451.16 18.55 451.2 18.55 451.2 18.55"/>
      <polygon class="cls-1" points="219.75 64.11 202.67 64.11 202.61 64.1 202.55 64.09 202.49 64.05 202.44 64.02 202.38 63.95 202.34 63.88 202.32 63.79 202.33 63.7 210.09 18.91 210.11 18.85 210.13 18.8 210.17 18.74 210.21 18.7 210.26 18.67 210.31 18.64 210.37 18.62 210.43 18.62 227.51 18.62 227.61 18.64 227.69 18.67 227.77 18.74 227.82 18.83 227.85 18.93 227.85 19.03 220.09 63.82 220.07 63.88 220.05 63.93 220.01 63.98 219.97 64.03 219.92 64.06 219.86 64.09 219.8 64.1 219.75 64.11 219.75 64.11"/>
      <polygon class="cls-1" points="764.14 117.26 764.18 117.24 764.24 117.26 764.27 117.3 764.28 117.34 764.26 117.39 763.07 118.96 761.55 120.93 760.42 122.37 759.88 123.03 759.36 123.64 758.87 124.22 758.38 124.78 757.88 125.32 757.39 125.83 756.91 126.32 756.43 126.79 755.95 127.23 755.47 127.64 755 128.04 754.53 128.42 752.98 129.61 751.41 130.78 749.84 131.94 748.26 133.08 746.67 134.21 745.07 135.32 743.46 136.42 741.84 137.49 740.22 138.56 738.59 139.61 736.94 140.64 735.29 141.66 733.62 142.65 731.96 143.65 730.28 144.61 728.59 145.57 728.59 145.57 728.59 145.57 728.59 145.57 728.59 145.57 728.59 145.57 728.59 145.57 726.66 146.64 724.71 147.69 722.74 148.71 720.78 149.72 718.79 150.71 716.8 151.67 714.79 152.63 712.78 153.55 710.74 154.45 708.71 155.34 706.65 156.2 704.59 157.05 702.52 157.88 700.43 158.68 698.33 159.46 696.22 160.22 694.23 160.92 692.22 161.6 690.21 162.26 688.18 162.91 686.14 163.54 684.09 164.15 682.03 164.74 679.96 165.33 677.88 165.89 675.78 166.43 673.68 166.96 671.55 167.47 669.43 167.96 667.28 168.43 665.12 168.89 662.95 169.33 660.77 169.76 658.58 170.17 656.36 170.57 654.14 170.94 651.9 171.3 649.65 171.64 647.39 171.97 645.1 172.29 642.8 172.58 640.49 172.86 638.16 173.11 635.82 173.36 633.46 173.6 631.08 173.8 628.68 174.01 626.27 174.18 623.85 174.35 621.43 174.5 619.02 174.63 616.61 174.75 614.2 174.86 611.78 174.94 609.37 175.01 606.96 175.07 604.55 175.11 602.14 175.14 599.73 175.15 597.32 175.14 594.91 175.12 592.49 175.08 590.09 175.03 587.68 174.97 587.68 174.97 587.68 174.97 587.68 174.97 585.69 174.89 583.7 174.82 581.72 174.73 579.73 174.63 577.74 174.52 575.75 174.4 573.77 174.27 571.78 174.13 569.79 173.98 567.8 173.82 565.82 173.65 563.84 173.46 561.85 173.27 559.87 173.07 557.89 172.85 555.9 172.63 553.26 172.31 550.61 171.98 547.96 171.63 545.3 171.26 542.64 170.88 539.97 170.48 537.3 170.07 534.63 169.64 531.96 169.18 529.27 168.72 526.59 168.23 523.9 167.74 521.21 167.22 518.51 166.68 515.8 166.14 513.1 165.57 510.39 164.98 507.67 164.39 504.95 163.77 502.22 163.14 499.49 162.49 496.75 161.82 494.01 161.13 491.27 160.43 488.52 159.71 485.76 158.98 482.99 158.23 480.23 157.46 477.46 156.67 474.68 155.86 471.9 155.05 469.11 154.21 465.49 153.1 461.95 151.99 458.49 150.9 455.06 149.79 451.15 148.5 447.2 147.17 443.13 145.78 438.86 144.29 434.46 142.73 429.56 140.98 423.96 138.95 415.89 136.03 404.35 131.83 394.98 128.45 388.88 126.28 382.88 124.18 376.98 122.15 371.18 120.2 365.48 118.31 359.87 116.5 354.36 114.76 351.64 113.92 348.95 113.1 346.3 112.3 343.65 111.52 340.99 110.74 338.33 109.99 335.66 109.26 332.99 108.53 330.32 107.82 327.64 107.13 327.64 107.13 327.64 107.13 327.64 107.13 325.19 106.5 322.75 105.89 320.3 105.3 317.84 104.71 315.39 104.14 312.93 103.58 310.46 103.03 308 102.49 305.53 101.96 303.05 101.45 300.58 100.95 298.1 100.45 295.62 99.98 293.13 99.52 290.65 99.06 288.15 98.62 285.66 98.19 283.16 97.78 280.66 97.37 278.16 96.98 275.65 96.6 273.14 96.23 270.63 95.87 268.12 95.53 265.6 95.2 263.07 94.88 260.55 94.57 258.02 94.27 255.48 93.98 252.96 93.72 250.42 93.46 247.88 93.2 245.32 92.97 242.77 92.75 240.22 92.54 237.67 92.35 235.13 92.17 232.58 92.01 230.04 91.86 227.5 91.72 224.97 91.6 222.43 91.5 219.9 91.41 217.37 91.33 214.85 91.27 212.32 91.21 209.8 91.18 207.28 91.17 204.76 91.16 202.25 91.17 199.74 91.19 197.23 91.23 194.72 91.28 192.21 91.35 189.71 91.43 187.21 91.53 184.71 91.64 182.21 91.76 179.72 91.9 177.23 92.05 174.74 92.23 172.25 92.4 169.76 92.61 167.28 92.82 165.66 92.97 164 93.13 162.29 93.31 160.54 93.51 158.75 93.73 156.92 93.95 155.05 94.2 153.14 94.47 152.13 94.6 150.97 94.73 149.64 94.86 148.17 94.98 147.98 94.98 147.82 94.96 147.68 94.91 147.56 94.83 147.56 94.83 147.48 94.74 147.41 94.63 147.38 94.54 147.39 94.45 147.41 94.4 147.44 94.35 147.48 94.31 147.53 94.28 148.33 93.92 149.13 93.57 149.94 93.23 150.76 92.92 150.76 92.92 150.76 92.92 151.91 92.5 153.06 92.11 154.24 91.76 155.42 91.44 157.4 90.93 159.39 90.45 161.4 89.98 163.42 89.55 165.46 89.13 167.51 88.73 169.58 88.36 171.66 88.01 173.74 87.68 175.84 87.37 177.96 87.09 180.08 86.83 182.22 86.59 184.36 86.37 186.51 86.17 188.67 86 191.3 85.81 193.9 85.64 196.49 85.47 199.05 85.32 201.59 85.18 204.11 85.06 206.61 84.95 209.09 84.86 211.55 84.78 213.98 84.7 216.39 84.65 218.79 84.61 221.16 84.58 223.5 84.57 225.83 84.57 228.14 84.58 230.32 84.61 232.89 84.65 239.18 84.8 247.01 85.01 256.39 85.3 258.71 85.38 261.05 85.48 263.39 85.59 265.74 85.71 268.1 85.85 270.47 86.01 272.84 86.17 275.23 86.35 277.62 86.55 280.02 86.76 282.43 86.98 284.85 87.21 287.28 87.46 289.72 87.73 292.17 88.01 294.63 88.3 297.09 88.61 299.57 88.93 302.06 89.27 304.57 89.62 307.08 89.98 309.61 90.36 312.15 90.75 314.7 91.16 317.26 91.58 319.84 92.02 322.43 92.47 325.04 92.94 327.66 93.42 330.3 93.91 332.95 94.42 335.62 94.95 341.15 96.07 346.53 97.19 351.76 98.31 356.87 99.45 361.86 100.59 366.75 101.74 371.54 102.9 376.24 104.08 380.87 105.29 385.42 106.51 389.89 107.74 394.29 109.01 398.63 110.29 400.77 110.94 402.9 111.59 405.01 112.25 407.11 112.92 409.19 113.59 411.25 114.27 416.32 115.97 421.92 117.89 428.18 120.07 436.82 123.11 444.41 125.77 450.01 127.73 455.1 129.49 459.77 131.08 464.32 132.61 468.65 134.02 472.8 135.36 476.8 136.61 480.83 137.84 484.74 139 488.55 140.09 492.28 141.12 495.93 142.09 499.49 142.99 503 143.85 504.73 144.25 506.44 144.64 513.11 146.13 519.66 147.55 526.07 148.9 532.34 150.2 535.18 150.77 538.01 151.32 540.83 151.86 543.65 152.36 546.46 152.86 549.25 153.34 552.04 153.8 554.82 154.24 557.59 154.67 560.36 155.07 563.11 155.45 565.85 155.82 568.59 156.17 571.32 156.5 574.03 156.81 576.74 157.11 579.44 157.38 582.13 157.64 584.81 157.88 587.48 158.1 590.15 158.3 592.8 158.48 595.44 158.65 598.08 158.79 600.7 158.92 603.32 159.03 605.92 159.11 608.52 159.18 611.1 159.24 613.68 159.28 616.24 159.29 618.8 159.29 621.35 159.27 623.89 159.23 626.41 159.17 628.93 159.1 631.43 159.01 633.93 158.89 636.41 158.76 638.89 158.61 641.36 158.44 643.81 158.26 646.26 158.05 648.69 157.83 651.12 157.58 653.53 157.33 655.94 157.05 658.34 156.75 660.72 156.43 663.09 156.1 665.46 155.74 667.81 155.38 670.15 154.99 672.48 154.58 674.81 154.15 677.11 153.7 679.42 153.24 681.71 152.76 683.99 152.26 686.26 151.74 688.52 151.21 690.76 150.65 693 150.08 695.23 149.48 696.73 149.07 698.23 148.65 699.72 148.21 701.22 147.77 702.7 147.31 704.18 146.85 705.67 146.36 707.15 145.88 707.15 145.88 707.15 145.88 707.15 145.88 707.15 145.88 707.15 145.88 707.15 145.88 709.7 145.01 712.24 144.1 714.77 143.16 717.28 142.19 719.79 141.18 722.29 140.14 724.77 139.08 727.24 137.98 729.71 136.84 732.16 135.67 734.6 134.47 737.03 133.24 739.45 131.97 741.86 130.67 744.26 129.34 746.64 127.97 747.51 127.44 749.26 126.36 755.35 122.54 757.39 121.27 759.53 119.97 761.78 118.64 764.14 117.26 764.14 117.26"/>
      <polygon class="cls-1" points="184 148.2 184.08 148.22 184.16 148.27 184.23 148.35 184.29 148.45 184.34 148.58 184.37 148.72 184.39 148.88 184.39 149.04 184.38 149.2 184.35 149.35 184.31 149.49 184.26 149.62 184.19 149.72 184.11 149.79 184.03 149.84 183.95 149.85 183.87 149.83 183.79 149.78 183.72 149.7 183.66 149.6 183.61 149.47 183.58 149.33 183.56 149.17 183.56 149.01 183.57 148.85 183.6 148.7 183.64 148.56 183.69 148.43 183.76 148.33 183.84 148.26 183.92 148.21 184 148.2 184 148.2"/>
      <polygon class="cls-3" points="99.97 131.51 99.97 131.51 99.92 131.49 99.87 131.46 99.84 131.41 99.83 131.36 99.83 130.67 99.85 130 99.88 129.34 99.92 128.69 99.97 128.05 100.04 127.42 100.11 126.79 100.19 126.18 100.29 125.58 100.39 124.99 100.51 124.4 100.64 123.83 100.78 123.26 100.93 122.71 101.09 122.17 101.26 121.64 101.45 121.09 101.65 120.55 101.87 120.04 102.09 119.53 102.33 119.04 102.58 118.56 102.85 118.09 103.12 117.64 103.4 117.2 103.71 116.77 104.02 116.36 104.34 115.96 104.68 115.58 105.02 115.2 105.38 114.85 105.76 114.49 105.76 114.49 105.76 114.49 105.76 114.49 106.09 114.2 106.43 113.93 106.78 113.66 107.14 113.4 107.51 113.15 107.89 112.91 108.27 112.68 108.67 112.47 109.07 112.26 109.49 112.06 109.91 111.87 110.34 111.69 110.78 111.52 111.23 111.36 111.69 111.21 112.16 111.08 112.68 110.94 113.19 110.83 113.72 110.73 114.24 110.65 114.77 110.59 115.31 110.55 115.86 110.53 116.4 110.52 116.95 110.54 117.5 110.57 118.06 110.62 118.62 110.68 119.18 110.77 119.74 110.88 120.3 111.01 120.87 111.14 121.43 111.31 122 111.49 122.57 111.69 123.13 111.9 123.7 112.13 124.26 112.38 124.82 112.65 125.37 112.93 125.92 113.23 126.47 113.55 127 113.88 127.53 114.22 128.06 114.58 128.57 114.95 129.08 115.35 129.57 115.74 130.24 116.31 131.59 117.42 132.1 117.82 132.57 118.18 133.02 118.5 133.46 118.8 133.88 119.05 134.29 119.29 134.7 119.51 135.11 119.69 135.52 119.85 135.91 119.98 136.31 120.1 136.71 120.17 137.11 120.23 137.5 120.26 137.75 120.28 138.01 120.27 138.51 120.23 139.02 120.16 139.54 120.05 139.79 119.97 140.03 119.87 140.2 119.79 140.36 119.7 140.52 119.6 140.68 119.49 140.83 119.38 140.97 119.25 141.25 118.96 141.51 118.63 141.76 118.27 141.98 117.86 142.2 117.41 142.39 116.94 142.56 116.42 142.73 115.86 142.88 115.26 143.01 114.62 143.14 113.92 143.25 113.17 143.39 112.17 143.51 111.34 143.52 111.28 143.54 111.23 143.58 111.17 143.62 111.14 143.66 111.1 143.72 111.08 143.77 111.06 143.83 111.06 154.28 111.06 154.34 111.06 154.4 111.08 154.45 111.11 154.5 111.14 154.54 111.2 154.57 111.25 154.58 111.31 154.59 111.37 154.59 111.37 154.59 111.38 154.52 112.82 154.47 113.51 154.41 114.18 154.35 114.84 154.27 115.48 154.19 116.11 154.1 116.72 153.99 117.32 153.88 117.9 153.76 118.48 153.62 119.04 153.48 119.59 153.33 120.12 153.17 120.65 153 121.16 152.81 121.67 152.62 122.16 152.42 122.64 152.21 123.11 151.98 123.56 151.75 124.01 151.51 124.45 151.25 124.87 150.99 125.28 150.71 125.68 150.43 126.07 150.13 126.45 149.83 126.82 149.51 127.17 149.18 127.52 148.85 127.86 148.65 128.04 148.25 128.39 147.84 128.74 147.43 129.06 147 129.37 146.57 129.67 146.12 129.94 145.67 130.2 145.21 130.44 145.21 130.44 145.21 130.44 145.21 130.44 144.56 130.75 143.9 131.02 143.22 131.27 142.52 131.48 141.81 131.67 141.08 131.82 140.33 131.94 139.57 132.02 139.07 132.06 138.58 132.09 138.08 132.1 137.6 132.09 137.11 132.08 136.63 132.05 136.15 132 135.67 131.95 134.92 131.83 134.18 131.67 133.43 131.48 132.68 131.26 131.93 130.99 131.18 130.7 130.43 130.36 129.67 129.99 128.91 129.58 128.14 129.14 127.35 128.66 126.53 128.12 125.68 127.54 124.77 126.89 123.77 126.15 122.57 125.24 122.18 124.95 121.77 124.66 121.34 124.38 120.9 124.11 120.47 123.85 120.04 123.61 119.62 123.4 119.2 123.2 118.8 123.03 118.4 122.88 118.03 122.75 117.67 122.65 117.32 122.56 116.99 122.5 116.67 122.46 116.37 122.45 116.01 122.45 115.68 122.48 115.35 122.52 115.04 122.59 114.74 122.68 114.45 122.78 114.17 122.91 113.91 123.05 113.74 123.16 113.58 123.28 113.43 123.4 113.27 123.54 113.12 123.68 112.99 123.84 112.72 124.17 112.48 124.54 112.26 124.94 112.06 125.38 111.88 125.86 111.71 126.37 111.58 126.9 111.46 127.49 111.37 128.11 111.29 128.77 111.22 129.48 111.17 130.25 111.14 131.16 111.13 131.23 111.11 131.3 111.07 131.36 111.02 131.4 110.97 131.45 110.91 131.48 110.85 131.5 110.78 131.51 99.97 131.51 99.97 131.51"/>
      <polygon class="cls-3" points="67.25 163.24 67.19 163.3 67.13 163.33 67.06 163.36 66.99 163.38 66.91 163.38 66.84 163.36 66.77 163.33 66.71 163.29 66.71 163.29 66.71 163.29 65.51 162.31 64.35 161.39 63.2 160.54 62.07 159.74 60.96 159 59.86 158.3 58.77 157.66 57.68 157.06 57.14 156.78 56.59 156.51 56.05 156.26 55.5 156.01 54.96 155.77 54.42 155.55 53.87 155.33 53.33 155.14 52.78 154.95 52.23 154.76 51.68 154.6 51.13 154.44 50.58 154.29 50.03 154.15 49.48 154.03 48.92 153.92 47.89 153.73 46.86 153.59 45.82 153.48 44.77 153.41 43.71 153.37 42.64 153.37 41.55 153.4 40.46 153.47 39.74 153.54 39.05 153.61 38.35 153.71 37.66 153.82 36.98 153.95 36.31 154.09 35.64 154.25 34.99 154.42 34.34 154.61 33.71 154.81 33.09 155.03 32.47 155.26 31.88 155.51 31.29 155.77 30.71 156.04 30.16 156.33 29.61 156.63 29.08 156.95 28.56 157.27 28.06 157.61 27.57 157.96 27.1 158.33 26.65 158.71 26.2 159.11 25.78 159.51 25.37 159.92 24.97 160.35 24.59 160.79 24.24 161.23 23.89 161.7 23.56 162.17 23.25 162.64 23 163.06 22.77 163.48 22.54 163.92 22.33 164.36 22.12 164.8 21.94 165.26 21.77 165.72 21.6 166.18 21.45 166.65 21.32 167.14 21.19 167.62 21.08 168.11 20.98 168.61 20.89 169.12 20.82 169.63 20.76 170.15 20.7 170.89 20.67 171.66 20.67 172.46 20.7 173.3 20.76 174.16 20.85 175.06 20.96 175.99 21.12 176.96 21.26 177.67 21.36 178.11 21.49 178.55 21.62 178.98 21.77 179.4 21.94 179.83 22.12 180.26 22.31 180.68 22.52 181.1 22.74 181.51 22.98 181.93 23.24 182.33 23.51 182.74 23.79 183.14 24.09 183.55 24.41 183.95 24.74 184.36 25.08 184.74 25.43 185.14 25.81 185.53 26.2 185.92 26.61 186.31 27.02 186.7 27.47 187.1 27.92 187.48 28.4 187.88 28.89 188.28 29.94 189.08 31.09 189.91 32.39 190.81 34.15 191.97 36.16 193.26 38.48 194.71 41.77 196.73 46.12 199.42 47.79 200.46 49.33 201.44 50.81 202.39 52.21 203.31 53.54 204.2 54.8 205.07 56.06 205.96 57.26 206.82 58.41 207.67 59.51 208.51 60.57 209.34 61.58 210.17 62.56 210.98 63.5 211.8 64.07 212.31 64.62 212.83 65.15 213.34 65.68 213.85 66.19 214.37 66.68 214.87 67.16 215.39 67.63 215.92 68.08 216.44 68.52 216.95 68.94 217.48 69.35 218 69.74 218.53 70.13 219.06 70.49 219.59 70.85 220.12 71.18 220.66 71.52 221.2 71.83 221.74 72.13 222.28 72.42 222.82 72.69 223.38 72.95 223.93 73.2 224.48 73.43 225.04 73.65 225.6 73.86 226.16 74.05 226.73 74.23 227.3 74.4 227.87 74.56 228.44 74.7 229.02 74.71 229.09 74.92 230.05 75.1 231.02 75.26 232 75.39 232.98 75.5 233.97 75.59 234.97 75.65 235.97 75.68 236.96 75.7 237.97 75.68 238.97 75.65 239.97 75.59 240.97 75.5 241.96 75.39 242.95 75.25 243.93 75.09 244.9 74.9 245.86 74.7 246.81 74.47 247.75 74.21 248.69 73.94 249.6 73.64 250.51 73.32 251.4 72.98 252.28 72.62 253.14 72.23 253.98 71.82 254.81 71.39 255.62 70.94 256.41 70.47 257.19 69.98 257.94 69.47 258.68 68.97 259.36 68.45 260.02 67.91 260.66 67.36 261.3 66.77 261.93 66.18 262.54 65.57 263.13 64.93 263.71 64.28 264.28 63.61 264.83 62.92 265.37 62.21 265.89 61.49 266.4 60.74 266.89 59.99 267.37 59.21 267.83 58.42 268.28 57.61 268.71 56.79 269.12 55.94 269.52 55.09 269.9 54.22 270.27 53.34 270.61 52.44 270.93 51.53 271.25 50.62 271.54 49.68 271.81 48.74 272.07 47.79 272.31 46.84 272.52 45.87 272.72 44.9 272.9 43.84 273.07 42.8 273.24 41.76 273.37 40.74 273.51 39.73 273.61 38.73 273.7 37.74 273.78 36.76 273.84 35.79 273.88 34.83 273.91 33.89 273.92 32.95 273.92 32.03 273.89 31.11 273.85 30.21 273.8 29.32 273.72 28.35 273.62 27.39 273.5 26.42 273.36 25.46 273.2 24.49 273.01 23.53 272.81 22.56 272.59 21.6 272.34 20.64 272.08 19.69 271.79 18.73 271.48 17.79 271.16 16.84 270.81 15.89 270.44 14.96 270.05 14.02 269.65 13.09 269.21 12.17 268.77 11.25 268.31 10.35 267.82 9.44 267.32 8.55 266.8 7.66 266.26 6.78 265.7 5.9 265.12 5.04 264.53 4.19 263.93 3.35 263.3 2.52 262.66 1.7 261.99 .89 261.33 .1 260.64 .06 260.6 .03 260.55 .01 260.5 0 260.44 0 260.39 .02 260.34 .04 260.29 .07 260.25 9.99 248.02 9.99 248.02 10.05 247.96 10.11 247.92 10.18 247.89 10.25 247.88 10.32 247.88 10.4 247.9 10.47 247.93 10.53 247.97 11.23 248.55 11.93 249.11 12.63 249.65 13.33 250.19 14.03 250.69 14.72 251.2 15.42 251.67 16.11 252.13 16.8 252.57 17.5 253 18.18 253.4 18.87 253.79 19.56 254.17 20.24 254.51 20.93 254.86 21.61 255.18 22.29 255.48 22.97 255.76 23.65 256.03 24.33 256.28 25 256.51 25.67 256.72 26.35 256.91 27.02 257.09 27.68 257.25 28.35 257.39 29.01 257.52 29.67 257.62 30.34 257.72 30.99 257.79 31.64 257.84 32.3 257.88 33.33 257.91 34.35 257.93 35.35 257.92 36.34 257.9 37.31 257.86 38.26 257.8 39.2 257.72 40.12 257.62 41.01 257.51 41.89 257.37 42.74 257.23 43.59 257.06 44.4 256.87 45.2 256.66 45.97 256.44 46.73 256.2 47.46 255.94 48.17 255.66 48.85 255.37 49.52 255.06 50.15 254.73 50.78 254.38 51.38 254.02 51.95 253.64 52.5 253.24 53.03 252.82 53.54 252.4 54.02 251.95 54.49 251.48 54.92 251 55.34 250.5 55.73 249.98 56.03 249.56 56.31 249.12 56.58 248.67 56.84 248.21 57.08 247.74 57.3 247.26 57.51 246.77 57.7 246.26 57.88 245.76 58.05 245.23 58.2 244.69 58.33 244.15 58.45 243.6 58.55 243.03 58.64 242.46 58.72 241.87 58.8 240.97 58.86 240.06 58.88 239.15 58.87 238.26 58.84 237.37 58.77 236.5 58.67 235.64 58.54 234.82 58.38 234.01 58.19 233.24 57.97 232.5 57.73 231.77 57.45 231.09 57.15 230.43 56.83 229.81 56.65 229.51 56.47 229.22 56.06 228.61 55.62 227.99 55.15 227.38 54.65 226.78 54.13 226.18 53.58 225.59 53 225 52.39 224.41 51.76 223.83 51.09 223.25 50.39 222.67 49.65 222.07 48.87 221.49 48.05 220.87 47.16 220.25 46.2 219.59 45.25 218.95 44.23 218.29 43.16 217.6 42.01 216.87 39.47 215.3 35.91 213.14 33.14 211.46 31.11 210.23 29.28 209.09 27.61 208.03 25.99 206.98 24.48 205.97 23.04 204.98 21.68 204.02 20.33 203.03 19.04 202.06 17.81 201.08 16.63 200.12 15.51 199.17 14.43 198.2 13.4 197.23 12.42 196.27 11.88 195.71 11.36 195.13 10.85 194.54 10.36 193.92 9.88 193.29 9.42 192.64 8.98 191.98 8.55 191.3 8.14 190.6 7.75 189.89 7.37 189.16 7.01 188.42 6.67 187.66 6.35 186.89 6.04 186.11 5.75 185.32 5.48 184.51 5.23 183.68 5 182.85 4.79 182.01 4.6 181.15 4.43 180.29 4.27 179.42 4.14 178.55 4.02 177.66 3.93 176.77 3.86 175.88 3.81 174.98 3.77 174.08 3.76 173.19 3.77 172.28 3.8 171.38 3.86 170.3 3.96 169.24 4.09 168.17 4.25 167.12 4.45 166.07 4.68 165.03 4.95 163.99 5.24 162.97 5.48 162.23 5.73 161.51 6 160.78 6.29 160.06 6.59 159.35 6.91 158.65 7.25 157.95 7.6 157.26 7.97 156.58 8.35 155.91 8.75 155.25 9.16 154.59 9.59 153.94 10.04 153.31 10.49 152.68 10.97 152.06 11.46 151.45 11.96 150.86 12.48 150.28 13.01 149.7 13.55 149.14 14.11 148.6 14.68 148.06 15.26 147.53 15.85 147.02 16.46 146.53 17.07 146.04 17.7 145.57 18.34 145.11 18.99 144.67 19.65 144.23 20.32 143.82 21.28 143.26 22.24 142.73 23.23 142.21 24.22 141.72 25.23 141.26 26.24 140.82 27.28 140.4 28.31 140.02 29.36 139.65 30.42 139.32 31.49 139.01 32.57 138.72 33.65 138.46 34.74 138.23 35.83 138.03 36.93 137.85 38.04 137.7 39.14 137.57 40.26 137.48 41.37 137.4 42.49 137.36 43.6 137.35 44.72 137.36 45.84 137.39 46.95 137.46 48.07 137.56 49.18 137.68 50.28 137.82 51.39 138 52.49 138.2 53.59 138.43 54.68 138.68 55.37 138.86 56.07 139.05 56.76 139.24 57.44 139.45 58.72 139.86 59.99 140.31 61.25 140.8 62.51 141.32 63.74 141.88 64.98 142.47 66.21 143.1 67.43 143.77 68.65 144.46 69.86 145.21 71.06 145.99 72.27 146.8 73.46 147.66 74.67 148.56 75.87 149.49 77.07 150.48 77.13 150.54 77.17 150.61 77.2 150.68 77.22 150.77 77.22 150.85 77.2 150.93 77.17 151.01 77.13 151.08 67.25 163.24 67.25 163.24"/>
      <path class="cls-3" d="M267.94,260.19l-.99.83-1,.81-1.02.79-1.04.76-1.04.72-1.05.69-1.07.68-1.08.65-1.1.63-1.12.59-1.14.58-1.15.55-1.16.53-1.18.5-1.19.47-1.21.45-1.22.43-1.23.4-1.25.38-1.26.35-1.27.32-1.29.3-1.3.27-1.3.24-1.33.22-1.32.19-1.34.17-1.35.14-1.36.11-1.36.09-1.38.06-1.38.04h-1.39s-1.39-.01-1.39-.01l-1.4-.05-1.4-.07-.92-.06-.91-.08-.91-.09-.9-.09-.9-.11-.89-.12-.88-.13-.88-.14-.87-.15-.86-.16-.86-.17-.85-.18-.84-.2-.84-.21-.83-.22-.82-.23-.82-.24-.81-.25-.8-.26-.8-.28-.8-.28-.78-.3-.78-.31-.77-.32-.77-.32-.76-.34-.75-.35-.75-.36-.74-.38-.74-.38-.73-.4-.72-.41h0l-.84-.49-.83-.51-.82-.52-.81-.54-.84-.58-.83-.59-.82-.6-.8-.62-.79-.63-.78-.65-.76-.66-.76-.67-.79-.73-.78-.75-.76-.76-.75-.77-.74-.8-.72-.81-.71-.82-.68-.83-.68-.86-.66-.87-.65-.88-.63-.89-.62-.91-.6-.93-.59-.93-.57-.95-.56-.97-.54-.97-.53-.99-.51-1-.5-1.02-.47-1.03-.46-1.05-.45-1.06-.43-1.07-.41-1.08-.4-1.09-.38-1.1-.37-1.11-.35-1.12-.33-1.14-.32-1.14-.3-1.17-.29-1.17-.26-1.19-.25-1.19-.24-1.21-.21-1.21-.2-1.22-.18-1.23-.16-1.24-.14-1.25-.13-1.26-.11-1.26-.09-1.26-.08-1.27-.06-1.27-.04-1.28-.02-1.29v-1.29s0-1.29,0-1.29l.03-1.3.05-1.3.06-1.3.09-1.3.1-1.3.12-1.31.14-1.3.15-1.3.17-1.3.19-1.3.2-1.3.22-1.29.24-1.29.32-1.57.35-1.54.38-1.53.4-1.51.43-1.49.46-1.48.49-1.46.52-1.44.55-1.42.57-1.4.61-1.38.63-1.36.66-1.34.69-1.32.72-1.29.74-1.28.77-1.25.79-1.22.82-1.2.85-1.18.88-1.15.9-1.12.92-1.1.95-1.07.97-1.05.99-1.02,1.02-1,1.05-.96,1.06-.94,1.09-.91,1.11-.88,1.13-.85.74-.53.75-.52.76-.51.77-.5.78-.49.79-.47.79-.46.8-.45.81-.43.82-.43.82-.41.83-.39.84-.39.85-.38.86-.36.86-.35.87-.33.87-.33.88-.3.89-.3.9-.28.9-.27.91-.25.92-.24.93-.23.93-.21.94-.2.94-.19.95-.17.96-.16.96-.15.97-.13,1.21-.15,1.21-.14,1.19-.11,1.18-.09,1.17-.08,1.17-.06,1.16-.03,1.14-.02h1.14l1.12.02,1.12.04,1.11.05,1.1.08,1.1.09,1.08.11,1.07.14.84.12.84.13.83.14.83.15.83.17.83.17.82.18.8.2.81.2.8.22.8.23.79.23.79.25.78.26.77.27.77.28.76.29.76.3.75.32.74.32.74.34.74.35.73.35.72.36.71.38.72.39.7.4.7.4.7.42.68.43.68.43.67.44.91.64.9.65.89.67.88.69.86.71.85.73.83.74.82.76.81.77.79.8.78.82.76.83.75.85.73.86.72.88.7.9.68.91.67.93.66.95.63.96.62.98.61.99.59,1.01.57,1.03.55,1.03.54,1.05.52,1.07.5,1.08.49,1.09.46,1.11.45,1.12.43,1.14.38,1.02.36,1.04.35,1.04.33,1.05.31,1.06.3,1.06.29,1.08.26,1.08.25,1.1.24,1.1.22,1.1.21,1.12.19,1.12.17,1.13.16,1.13.15,1.15.13,1.16.11,1.17.1,1.17.09,1.18.07,1.19.05,1.21.04,1.21.03,1.22v1.23s0,1.24,0,1.24l-.02,1.24-.04,1.26-.05,1.27-.07,1.27-.08,1.29-.1,1.3-.17,1.83-.2,1.83-.23,1.81-.27,1.8-.31,1.78-.34,1.77-.38,1.74-.41,1.73-.44,1.71-.48,1.69-.51,1.66-.54,1.63-.58,1.62-.61,1.59-.32.78-.33.78-.33.77-.35.76-.34.75-.36.75-.37.74-.37.74-.38.72-.38.72-.39.71-.41.7-.41.7-.41.68-.43.68-.43.67-.44.66-.45.65-.45.65-.46.64-.47.63-.48.62-.49.61-.49.6-.49.6-.51.59-.51.58-.52.57-.52.56-.54.55-.54.55-.55.54-.55.53-.56.52-.57.51-.57.51M204.38,161.01l-.88.64-.86.67-.71.57-.69.58-.68.6-.67.62-.65.63-.64.64-.63.66-.62.67-.6.7-.6.7-.57.73-.57.73-.56.75-.54.76-.52.78-.51.78-.5.81-.49.81-.47.83-.46.84-.45.86-.42.86-.42.88-.4.89-.39.91-.37.91-.36.93-.35.94-.33.95-.31.97-.3.97-.29.98-.27,1.01-.25,1.01-.24,1.03-.23,1.03-.21,1.04-.2,1.05-.18,1.06-.16,1.06-.15,1.08-.13,1.07-.11,1.08-.1,1.09-.09,1.1-.06,1.09-.05,1.11-.03,1.11v1.11s-.01,1.11-.01,1.11v1.12s.05,1.11.05,1.11l.05,1.11.07,1.12.09,1.11.1,1.12.12,1.11.13,1.11.15,1.11.17,1.1.18,1.1.2,1.09.21,1.09.23,1.08.27,1.2.29,1.18.32,1.16.34,1.15.36,1.14.38,1.12.41,1.11.43,1.09.45,1.07.48,1.05.49,1.04.52,1.02.54,1,.55.98.57.96.6.94.61.93.63.9.66.87.67.86.69.84.71.81.73.79.74.77.77.75.78.72.8.71.82.67.83.66.85.63.87.6.88.59.57.35.57.35.58.34.59.33.59.32.6.3.61.3.61.29.62.27.62.27.63.26.63.24.64.23.65.23.65.22.66.21.66.19.67.18.67.17.67.16.68.16.69.14.69.13.7.12.7.11.71.1.7.09.72.08.72.06.72.06.73.05.73.03,1.16.04h1.16s1.15,0,1.15,0l1.15-.04,1.14-.07,1.13-.08,1.12-.11,1.11-.14,1.1-.16,1.1-.18,1.08-.21,1.08-.23,1.05-.25,1.05-.28,1.04-.3,1.02-.33,1.01-.35.99-.37.98-.4.96-.41.95-.44.93-.46.92-.48.91-.5.89-.53.87-.55.85-.57.84-.59.82-.61.8-.64.78-.66.77-.68.59-.54.58-.56.56-.57.56-.58.54-.59.53-.61.51-.61.51-.63.49-.64.48-.65.47-.67.45-.67.45-.68.43-.7.42-.7.4-.72.4-.73.39-.74.38-.75.36-.76.36-.77.34-.77.34-.78.32-.79.31-.8.3-.8.28-.81.27-.82.27-.83.25-.83.24-.85.23-.85.22-.86.21-.86.19-.88.18-.87.18-.89.16-.89.15-.9.14-.91.13-.91.11-.92.1-.93.09-.93.09-.95.07-.95.06-.96.05-.96.05-1.31.04-1.3.02-1.27v-1.26s0-1.24,0-1.24l-.02-1.22-.05-1.21-.05-1.18-.07-1.17-.09-1.16-.1-1.14-.12-1.12-.13-1.11-.15-1.1-.17-1.09-.18-1.07-.2-1.06-.21-1.04-.23-1.04-.24-1.02-.26-1.01-.27-.99-.29-.98-.3-.98-.32-.96-.34-.94-.35-.94-.37-.92-.39-.92-.4-.9-.42-.9-.43-.88-.52-1-.54-.98-.56-.96-.57-.93-.6-.92-.61-.89-.63-.87-.65-.84-.67-.82-.69-.8-.71-.77-.72-.76-.75-.73-.76-.71-.78-.69-.8-.66h0l-.71-.57-.73-.55-.74-.52-.76-.51-.77-.5-.79-.47-.8-.46-.81-.44-.83-.42-.84-.4-.86-.39-.87-.38-.88-.35-.89-.33-.91-.32-.93-.3-1.03-.31-1.08-.29-1.11-.26-1.13-.24-1.17-.21-1.19-.19-1.2-.16-1.22-.13-1.23-.1-1.23-.07-1.23-.05h-1.21s-1.2,0-1.2,0l-1.18.05-1.15.07-1.12.1-.93.1-.93.13-.92.14-.92.16-.9.18-.9.2-.89.22-.88.23-.87.25-.86.27-.86.29-.84.31-.83.32-.83.33-.82.36-.81.38h0l-.8.39-.79.41-.79.42-.77.45-.76.46-.75.48-.75.5-.74.52h0Z"/>
      <path class="cls-3" d="M162.52,271.87l-14.12-38.43-.03-.06-.05-.04-.06-.03h-.07s-47.01-.01-47.01-.01h-.07s-.06.04-.06.04l-.05.04-.03.06-13.97,38.43-.03.05-.04.04h0l-.07.05h-.08s-17.54.01-17.54.01h-.05s-.05-.02-.05-.02l-.05-.03-.03-.04-.03-.05v-.05s0-.05,0-.05v-.05s49.13-132.25,49.13-132.25l.04-.06.05-.04.06-.03h.07s13.39-.01,13.39-.01h.05s.05.02.05.02l.06.05.05.07,48.58,132.25.02.05v.05l-.02.05-.02.05-.04.04-.04.03-.05.02h-.05s-17.61,0-17.61,0h-.07s-.06-.04-.06-.04l-.05-.05-.04-.06M107.09,216.88l-.02.05v.12s.03.05.03.05l.04.04.04.04.05.03.05.02h.06s34.8-.06,34.8-.06h.06s.07-.04.07-.04l.05-.03.05-.05.03-.06v-.06s.01-.07.01-.07v-.06s-17.49-48.74-17.49-48.74l-.03-.05-.04-.05-.05-.03-.05-.03h-.06s-.06-.01-.06-.01h-.06s-.05.03-.05.03l-.07.06-.05.08-17.32,48.8h0Z"/>
    </g>
  </g>
</svg>